<?xml version="1.0" encoding="UTF-8"?>
<!DOCTYPE svg PUBLIC "-//W3C//DTD SVG 1.1//EN" "http://www.w3.org/Graphics/SVG/1.1/DTD/svg11.dtd">
<!-- Creator: CorelDRAW X6 -->
<svg xmlns="http://www.w3.org/2000/svg" xml:space="preserve" width="12.8692mm" height="12.8692mm" version="1.1" style="shape-rendering:geometricPrecision; text-rendering:geometricPrecision; image-rendering:optimizeQuality; fill-rule:evenodd; clip-rule:evenodd"
viewBox="0 0 1287 1287"
 xmlns:xlink="http://www.w3.org/1999/xlink">
 <defs>
  <style type="text/css">
   <![CDATA[
    .fil1 {fill:#A54141}
    .fil2 {fill:#A72C2C}
    .fil0 {fill:#F54343}
   ]]>
  </style>
 </defs>
 <g id="Слой_x0020_1">
  <metadata id="CorelCorpID_0Corel-Layer"/>
  <g id="_554841520">
   <path class="fil0" d="M101 150l-59 62c25,62 23,47 88,112l206 205c46,46 61,66 43,147 42,66 -90,167 -117,195 -40,40 -132,142 -172,164 -13,20 -32,36 -48,53 1,51 22,59 51,87 127,126 155,96 255,-4 50,-50 94,-94 144,-144 165,-165 166,-167 329,-4 50,50 94,94 144,144 142,142 151,103 251,8 30,-29 55,-33 60,-86 -20,-18 -42,-38 -58,-60 -41,-26 -123,-117 -163,-158 -48,-48 -130,-99 -124,-196 -3,-125 3,-98 153,-248 61,-61 154,-136 192,-214l-53 -53c-41,-29 -78,-101 -159,-74 -90,29 -302,335 -398,342 -110,7 -306,-296 -406,-340 -80,-36 -119,41 -159,62z"/>
   <path class="fil1" d="M58 136l43 14c40,-21 79,-98 159,-62 100,44 296,347 406,340 96,-7 308,-313 398,-342 81,-27 118,45 159,74 1,-2 3,-5 4,-7l24 -22c-24,-32 -40,-35 -68,-62 -29,-29 -52,-46 -72,-52l-35 0c-32,11 -67,49 -127,109 -46,46 -86,86 -132,132 -51,51 -141,176 -255,62 -24,-24 -42,-42 -66,-66 -46,-46 -85,-86 -131,-132 -62,-62 -99,-95 -129,-105l-36 0c-34,11 -71,53 -142,119z"/>
   <path class="fil1" d="M1218 1029c6,-6 5,-5 14,-12 2,-2 19,-12 19,-13 -24,-35 -188,-192 -241,-244l-79 -85c-6,97 76,148 124,196 40,41 122,132 163,158z"/>
   <path class="fil1" d="M50 1015c35,1 26,-5 40,20 40,-22 132,-124 172,-164 27,-28 159,-129 117,-195 -11,38 -49,61 -76,88 -31,31 -56,55 -86,86 -50,50 -117,125 -167,165z"/>
   <path class="fil2" d="M1218 1029c16,22 38,42 58,60 0,-50 5,-62 -25,-85 0,1 -17,11 -19,13 -9,7 -8,6 -14,12z"/>
   <path class="fil2" d="M42 1088c16,-17 35,-33 48,-53 -14,-25 -5,-19 -40,-20 -5,11 -7,19 -8,26l0 47z"/>
   <path class="fil2" d="M1223 160l53 53c0,-51 -7,-51 -25,-82l-24 22c-1,2 -3,5 -4,7z"/>
   <path class="fil2" d="M42 212l59 -62 -43 -14c-11,28 -16,34 -16,76z"/>
  </g>
 </g>
</svg>
